<svg xmlns="http://www.w3.org/2000/svg" xmlns:xlink="http://www.w3.org/1999/xlink" fill="none" version="1.1" width="14"
     height="14" viewBox="0 0 14 14">
    <g>
        <path d="M12.7675,0L4.52822,0C3.84949,0,3.29571,0.540718,3.29571,1.20323L3.29571,2.41302L1.23589,2.41302C0.553787,2.41302,0,2.95361,0,3.61953L0,9.24654C0,9.91246,0.553787,10.453,1.23589,10.453L1.65123,10.453L1.65123,13.5979C1.64991,13.7624,1.75339,13.9107,1.91124,13.9703C1.96189,13.99,2.01254,14,2.06319,14C2.17682,14.0002,2.28552,13.9549,2.36372,13.8748L5.68307,10.4498L9.4684,10.4498C9.8027,10.4498,10.0999,10.308,10.3261,10.0904L11.6397,11.442C11.7207,11.5244,11.8287,11.5673,11.9402,11.5673C11.9908,11.5673,12.0415,11.5573,12.0921,11.5376C12.2491,11.4768,12.3521,11.3292,12.3521,11.165L12.3521,8.03675L12.7675,8.03675C13.4462,8.03675,14,7.49603,14,6.83352L14,1.20323C13.9966,0.540587,13.4462,0,12.7675,0ZM9.4684,9.64538L5.49059,9.64538C5.35215,9.64538,5.23396,9.71796,5.15967,9.82007L2.47516,12.5859L2.47516,10.064C2.47516,10.0608,2.47178,10.0575,2.47178,10.0542C2.47178,10.0509,2.47516,10.0476,2.47516,10.0442C2.47516,9.82348,2.28944,9.6421,2.06319,9.6421L1.23589,9.6421C1.00965,9.6421,0.823927,9.46086,0.823927,9.23997L0.823927,3.61953C0.823927,3.39865,1.00965,3.21727,1.23589,3.21727L3.29571,3.21727L3.29571,6.83693C3.29571,7.49944,3.84949,8.04003,4.52822,8.04003L8.33719,8.04003L9.76893,9.51362C9.69127,9.59262,9.58659,9.64538,9.4684,9.64538ZM13.1761,6.8368C13.1761,7.05768,12.9937,7.23578,12.7675,7.23578L11.9402,7.23578C11.7139,7.23578,11.5282,7.41689,11.5282,7.6379L11.5282,10.1597L8.81331,7.36098L8.80994,7.3577C8.78292,7.33132,8.75253,7.31478,8.71876,7.2951C8.70526,7.28512,8.69175,7.272,8.67487,7.26872C8.66136,7.26216,8.64785,7.26544,8.63435,7.25874C8.59663,7.24445,8.55663,7.23663,8.51616,7.23564L4.52822,7.23564C4.30189,7.2355,4.11874,7.05672,4.11963,6.8368L4.11963,1.20323C4.11963,0.982348,4.30198,0.804252,4.52822,0.804252L12.7675,0.804252C12.9939,0.804395,13.177,0.983259,13.1761,1.20323L13.1761,6.8368Z"
              fill="black" fill-opacity="1"/>
    </g>
</svg>