<svg xmlns="http://www.w3.org/2000/svg" xmlns:xlink="http://www.w3.org/1999/xlink" fill="none" version="1.1" width="14"
     height="14" viewBox="0 0 14 14">
    <defs>
        <clipPath id="master_svg0_74_73434/74_65812">
            <rect x="0" y="0" width="14" height="14" rx="0"/>
        </clipPath>
        <clipPath id="master_svg1_74_73434/74_65812/16_4924">
            <rect x="0" y="0" width="14" height="14" rx="0"/>
        </clipPath>
    </defs>
    <g clip-path="url(#master_svg0_74_73434/74_65812)">
        <rect x="0" y="0" width="14" height="14" rx="0" fill="#FFFFFF" fill-opacity="0.000009999999747378752"/>
        <g clip-path="url(#master_svg1_74_73434/74_65812/16_4924)">
            <g>
                <path d="M12.35346883354187,3.5093346397884844C12.35346883354187,3.5093346397884844,8.99098883354187,0.1468296397884842,8.99098883354187,0.1468296397884842C8.89722883354187,0.053079539788484204,8.77068883354187,-0.000045360211515799165,8.637878833541869,-0.000045360211515799165C8.637878833541869,-0.000045360211515799165,2.0003668335418703,-0.000045360211515799165,2.0003668335418703,-0.000045360211515799165C1.7238068335418701,-0.000045360211515799165,1.5003688335418701,0.2233926397884842,1.5003688335418701,0.4999526397884842C1.5003688335418701,0.4999526397884842,1.5003688335418701,13.499954639788484,1.5003688335418701,13.499954639788484C1.5003688335418701,13.776454639788485,1.7238068335418701,13.999954639788484,2.0003668335418703,13.999954639788484C2.0003668335418703,13.999954639788484,12.00036883354187,13.999954639788484,12.00036883354187,13.999954639788484C12.27696883354187,13.999954639788484,12.50036883354187,13.776454639788485,12.50036883354187,13.499954639788484C12.50036883354187,13.499954639788484,12.50036883354187,3.864014639788484,12.50036883354187,3.864014639788484C12.50036883354187,3.7312046397884844,12.44726883354187,3.6030846397884844,12.35346883354187,3.5093346397884844C12.35346883354187,3.5093346397884844,12.35346883354187,3.5093346397884844,12.35346883354187,3.5093346397884844ZM11.34722883354187,4.093714639788484C11.34722883354187,4.093714639788484,8.40660883354187,4.093714639788484,8.40660883354187,4.093714639788484C8.40660883354187,4.093714639788484,8.40660883354187,1.1530846397884842,8.40660883354187,1.1530846397884842C8.40660883354187,1.1530846397884842,11.34722883354187,4.093714639788484,11.34722883354187,4.093714639788484C11.34722883354187,4.093714639788484,11.34722883354187,4.093714639788484,11.34722883354187,4.093714639788484ZM11.37538883354187,12.874954639788484C11.37538883354187,12.874954639788484,2.62536883354187,12.874954639788484,2.62536883354187,12.874954639788484C2.62536883354187,12.874954639788484,2.62536883354187,1.1249546397884842,2.62536883354187,1.1249546397884842C2.62536883354187,1.1249546397884842,7.34412883354187,1.1249546397884842,7.34412883354187,1.1249546397884842C7.34412883354187,1.1249546397884842,7.34412883354187,4.499944639788485,7.34412883354187,4.499944639788485C7.34412883354187,4.674014639788484,7.41326883354187,4.840924639788485,7.53630883354187,4.9640046397884845C7.65939883354187,5.087044639788484,7.82630883354187,5.156194639788485,8.00037883354187,5.156194639788485C8.00037883354187,5.156194639788485,11.37538883354187,5.156194639788485,11.37538883354187,5.156194639788485C11.37538883354187,5.156194639788485,11.37538883354187,12.874954639788484,11.37538883354187,12.874954639788484C11.37538883354187,12.874954639788484,11.37538883354187,12.874954639788484,11.37538883354187,12.874954639788484Z"
                      fill="black" fill-opacity="0.8500000238418579"/>
            </g>
        </g>
    </g>
</svg>