<svg xmlns="http://www.w3.org/2000/svg" xmlns:xlink="http://www.w3.org/1999/xlink" fill="none" version="1.1" width="14"
     height="14" viewBox="0 0 14 14">
    <g>
        <path d="M0,7C0,3.13437,3.13437,0,7,0C10.8656,0,14,3.13437,14,7C14,10.8656,10.8656,14,7,14C3.13437,14,0,10.8656,0,7ZM1.1875,7C1.1875,10.2094,3.79062,12.8125,7,12.8125C10.2094,12.8125,12.8125,10.2094,12.8125,7C12.8125,3.79062,10.2094,1.1875,7,1.1875C3.79062,1.1875,1.1875,3.79062,1.1875,7ZM6.46944,4.78034C6.32878,4.63968,6.24976,4.44893,6.24976,4.25001C6.24976,4.05109,6.32878,3.86032,6.46944,3.71967C6.61006,3.57902,6.80085,3.5,6.99977,3.5C7.19868,3.5,7.38943,3.57902,7.53009,3.71967C7.67076,3.86032,7.74974,4.05109,7.74974,4.25001C7.74974,4.44893,7.67076,4.63968,7.53009,4.78034C7.38943,4.921,7.19868,4.99998,6.99977,4.99998C6.80085,4.99998,6.61006,4.921,6.46944,4.78034ZM6.62476,6.00001L7.37477,6.00001C7.44349,6.00001,7.49976,6.05624,7.49976,6.125L7.49976,10.375C7.49976,10.4438,7.44349,10.5,7.37477,10.5L6.62476,10.5C6.55601,10.5,6.49977,10.4438,6.49977,10.375L6.49977,6.125C6.49977,6.05624,6.55601,6.00001,6.62476,6.00001Z"
              fill-rule="evenodd" fill="black" fill-opacity="0.8509804010391235"/>
    </g>
</svg>