<svg xmlns="http://www.w3.org/2000/svg" xmlns:xlink="http://www.w3.org/1999/xlink" fill="none" version="1.1" width="14"
     height="14" viewBox="0 0 14 14">
    <defs>
        <clipPath id="master_svg0_74_73479">
            <rect x="0" y="0" width="14" height="14" rx="0"/>
        </clipPath>
    </defs>
    <g clip-path="url(#master_svg0_74_73479)">
        <g>
            <path d="M9.888191015625,6.905059375L9.888561015625001,6.905059375C10.098711015625,6.905059375,10.269241015625,6.734719375,10.269431015624999,6.5245693750000004C10.269621015624999,6.314049375,10.099271015625,6.143339375,9.888941015625,6.143339375L8.956111015625,6.142639375L9.988621015625,4.912609375C10.123821015625001,4.751557375,10.102811015625,4.511288375,9.941761015625,4.376273175C9.780891015625,4.241258475,9.540441015625,4.261709975,9.405061015625,4.423140375L8.191351015625,5.869039375L6.977815015625,4.423140375C6.842800015625,4.261724075,6.602349015625,4.241636475,6.441115015625,4.376273175C6.280063015625,4.511288375,6.259051015625,4.751557375,6.394248015625,4.912609375L7.425651015625,6.141489375L6.442052015625,6.140749375L6.441674015625,6.140749375C6.231530015625,6.140749375,6.061000883625,6.311089375,6.060804784325,6.521239375C6.060622870625,6.731749375,6.230970015625,6.902469375,6.441296015625,6.902469375L7.7852310156249995,6.903479375L7.784701015625,7.482219375L6.442038015625,7.481209375000001L6.441660015625,7.481209375000001C6.231516015625,7.481209375000001,6.060987114625,7.651559375,6.060791015625,7.861699375000001C6.060609102625,8.072219375,6.230956015625,8.242929375,6.441282015625,8.242929375L7.783981015625,8.243959375L7.783031015625,9.278789374999999C7.782851015625,9.489309375000001,7.953201015625,9.659659375,8.163521015625001,9.660019375000001L8.163891015625,9.660019375000001C8.374031015625,9.660019375000001,8.544561015625,9.489679375,8.544751015625,9.279529375L8.545711015624999,8.244529374999999L9.888181015625,8.245539375L9.888561015625001,8.245539375C10.098711015625,8.245539375,10.269241015625,8.075189375,10.269431015624999,7.865049375C10.269611015625,7.654529375,10.099271015625,7.483809375,9.888941015625,7.483809375L8.546411015625,7.482809375L8.546941015625,6.904069375000001L9.888191015625,6.905059375Z"
                  fill="black" fill-opacity="1"/>
        </g>
        <g>
            <path d="M12.229853515625,1.74072265625L1.230763515625,1.74072265625C1.092393515625,1.74075791235,0.964911515625,1.81578025625,0.897698415625,1.9367286562500001C0.830541615625,2.05776865625,0.834314415625,2.20570965625,0.907553315625,2.32316965625L1.7903505156250001,3.73876265625L0.907553315625,5.15473265625C0.830743315625,5.2781526562500005,0.830743315625,5.434492656250001,0.907553315625,5.55791265625L1.7903505156250001,6.97350265625L0.907553315625,8.38946265625C0.830743415625,8.51288265625,0.830743415625,8.66922265625,0.907553315625,8.792642656249999L1.7903505156250001,10.20823265625L0.907553315625,11.62381265625C0.834314415625,11.74122265625,0.830541615625,11.88922265625,0.897698415625,12.01022265625C0.964911515625,12.13122265625,1.092393515625,12.20622265625,1.230763515625,12.20622265625L12.229853515625,12.20622265625C12.705753515625,12.20622265625,13.092753515625,11.81912265625,13.092753515625,11.34336265625L13.092753515625,2.60361365625C13.092753515625,2.12790565625,12.705753515625,1.74072265625,12.229853515625,1.74072265625ZM12.331053515625,11.34336265625C12.330953515625,11.39921265625,12.285653515625,11.44447265625,12.229853515625,11.44453265625L4.3124435156250005,11.44453265625L4.3124435156250005,11.06368265625C4.3124435156250005,10.85315265625,4.141923515625,10.68281265625,3.931583515625,10.68281265625C3.721253515625,10.68281265625,3.550713515625,10.85315265625,3.550713515625,11.06368265625L3.550713515625,11.44453265625L1.917173515625,11.44453265625L2.562493515625,10.40981265625C2.639303515625,10.28639265625,2.639303515625,10.13005265625,2.562493515625,10.00663265625L1.679692515625,8.59103265625L2.562493515625,7.17508265625C2.639303515625,7.05166265625,2.639303515625,6.89532265625,2.562493515625,6.77190265625L1.679692515625,5.35631265625L2.562493515625,3.94035265625C2.639303515625,3.81693265625,2.639303515625,3.66059265625,2.562493515625,3.53717265625L1.917173515625,2.50244665625L3.550723515625,2.50244665625L3.550723515625,2.88331265625C3.550723515625,3.09384265625,3.721253515625,3.26418265625,3.931593515625,3.26418265625C4.141923515625,3.26418265625,4.312463515625,3.09384265625,4.312463515625,2.88331265625L4.312463515625,2.50244665625L12.229853515625,2.50244665625C12.285653515625,2.50244665625,12.331053515625,2.54783065625,12.331053515625,2.60361365625L12.331053515625,11.34336265625L12.331053515625,11.34336265625Z"
                  fill="black" fill-opacity="1"/>
        </g>
        <g>
            <path d="M3.931406109375,7.410961875C3.721080109375,7.410961875,3.550537109375,7.581301874999999,3.550537109375,7.791831875L3.550537109375,9.427981875C3.550537109375,9.638501875,3.721066109375,9.808831875,3.931406109375,9.808831875C4.141733109375,9.808831875,4.312276109375,9.638491875,4.312276109375,9.427981875L4.312276109375,7.791831875C4.312276109375,7.581301874999999,4.141747109375,7.410961875,3.931406109375,7.410961875ZM3.931406109375,4.138671875C3.721080109375,4.138671875,3.550537109375,4.309018875,3.550537109375,4.519540875L3.550537109375,6.1556918750000005C3.550537109375,6.366201875,3.721066109375,6.536551875,3.931406109375,6.536551875C4.141733109375,6.536551875,4.312276109375,6.366201875,4.312276109375,6.1556918750000005L4.312276109375,4.519526875C4.312276109375,4.309018875,4.141747109375,4.138671875,3.931406109375,4.138671875Z"
                  fill="black" fill-opacity="1"/>
        </g>
    </g>
</svg>