<svg xmlns="http://www.w3.org/2000/svg" xmlns:xlink="http://www.w3.org/1999/xlink" fill="none" version="1.1" width="14"
     height="14" viewBox="0 0 14 14">
    <defs>
        <clipPath id="master_svg0_74_73486">
            <rect x="0" y="0" width="14" height="14" rx="0"/>
        </clipPath>
        <clipPath id="master_svg1_74_73496">
            <rect x="0" y="0" width="14" height="14" rx="0"/>
        </clipPath>
    </defs>
    <g clip-path="url(#master_svg0_74_73486)">
        <g clip-path="url(#master_svg1_74_73496)">
            <g>
                <path d="M6.17969,8.596875C6.420310000000001,8.596875,6.61719,8.793755,6.61719,9.034375L6.61719,9.154685C6.61719,9.395315,6.420310000000001,9.592185,6.17969,9.592185C5.93906,9.592185,5.74219,9.395315,5.74219,9.154685L5.74219,9.034375C5.74219,8.793755,5.93906,8.596875,6.17969,8.596875ZM4.15625,5.118755Q4.1890624,5.414065,4.528125,5.414065Q4.867188,5.414065,4.889063,5.118755C4.85625,4.156255,5.30469,3.685938,6.23437,3.740626C6.84687,3.80625,7.16406,4.156255,7.18594,4.779685C7.142189999999999,5.053125,6.9125,5.414065,6.4968699999999995,5.851565C5.95,6.409375,5.6656200000000005,6.901565,5.6656200000000005,7.339065L5.6656200000000005,7.787495Q5.7093799999999995,8.060935,6.01563,8.060935Q6.3218700000000005,8.060935,6.3656299999999995,7.787495L6.3656299999999995,7.470315C6.3656299999999995,7.098435,6.6281300000000005,6.660935,7.15313,6.146875C7.71094,5.6437550000000005,7.98437,5.173435,7.98437,4.757815C7.94062,3.598437,7.33906,2.996875,6.16875,2.953125C4.823437,2.953125417233,4.15625,3.664063,4.15625,5.118755Z"
                      fill="black" fill-opacity="1"/>
            </g>
            <g>
                <path d="M7.634521484375,12.217225L1.586083484375,12.217225C1.192333484375,12.217225,0.853271484375,11.878125,0.853271484375,11.484325L0.853271484375,1.060937C0.853271484375,0.667187,1.192333484375,0.328125,1.586083484375,0.328125L10.554831484375,0.328125C10.948571484375,0.328125,11.287671484375,0.667187,11.287671484375,1.060937L11.287671484375,1.389065L11.276671484375,1.389065L11.276671484375,6.835935L7.634521484375,12.217225ZM1.586083484375,0.984375C1.553271484375,0.984375,1.509521484375,1.028125,1.509521484375,1.060937L1.509521484375,11.484325C1.509521484375,11.517225,1.553271484375,11.560925,1.586083484375,11.560925L7.284521484375,11.560925L10.620461484375,6.639065L10.620461484375,1.028125C10.609521484375,1.00625,10.576711484375,0.984375,10.554831484375,0.984375L1.586083484375,0.984375ZM8.651711484375,11.637525L8.597021484375,11.714025L8.597021484375,11.812525L8.575141484375,13.431225L8.575141484375,13.912525L9.023581484375,13.737525L10.532961484375,13.125025L10.620461484375,13.092225L10.675151484375,13.015625L13.475171484375,8.925005L13.650171484375,8.662505L13.387671484375,8.487505L11.900171484375,7.470315L11.637671484375,7.295315L11.462671484375,7.557815L8.651711484375,11.637525ZM11.539171484375,7.984375L13.026671484375,9.001565L12.939171484375,8.564065L10.139211484375,12.654725L10.281391484375,12.534425L8.772021484375,13.146925L9.209521484375,13.442225L9.231391484375,11.823425L9.176711484375,11.998425L11.976671484375,7.907815L11.539171484375,7.984375Z"
                      fill="black" fill-opacity="1"/>
            </g>
            <g>
                <path d="M10.26895296875,12.7787103125L9.05029296875,11.9449453125L9.42085596875,11.4033203125L10.639512968750001,12.2371953125L10.26895296875,12.7787103125Z"
                      fill="black" fill-opacity="1"/>
            </g>
        </g>
    </g>
</svg>